#!OML:ASF F:\VICON\USERDATA\INSTALL\rory3\rory3.ASF
:FULLY-SPECIFIED
:DEGREES
65
root -11.0345 15.7028 -6.86534 11.0776 28.5565 4.47078
lowerback 30.0755 1.66105 2.33008
upperback 6.84888 3.37295 3.36309
thorax -8.88506 1.63673 1.19895
lowerneck -18.996 3.37529 -3.88035
upperneck 10.5067 6.30212 -4.79042
head 6.33996 2.48325 -0.24144
rclavicle 2.8625e-014 -1.59028e-015
rhumerus -16.9742 -29.6602 -47.7843
rradius 69.0406
rwrist 27.4767
rhand -32.9442 -9.49877
rfingers 7.12502
rthumb -6.16032 -39.3892
lclavicle 2.8625e-014 -1.59028e-015
lhumerus -25.1631 26.7316 67.5185
lradius 61.2133
lwrist -5.55819
lhand -31.174 37.1077
lfingers 7.12502
lthumb -4.45111 67.041
rfemur -45.7599 -18.9074 27.2714
rtibia 75.2331
rfoot -28.9662 -6.59448
rtoes 6.04541
lfemur -67.1905 0.811133 -12.4413
ltibia 76.3811
lfoot 0.840227 -10.9927
ltoes -30.0943
66
root -11.0395 15.707 -6.83487 11.2545 28.6658 4.59395
lowerback 29.9318 1.66426 2.21799
upperback 6.84642 3.34329 3.40765
thorax -8.82728 1.62666 1.32775
lowerneck -20.3109 3.19793 -5.445
upperneck 12.2043 6.39829 -3.12794
head 6.99678 2.51842 0.590652
rclavicle 1.11319e-014 6.36111e-015
rhumerus -17.4301 -29.8274 -47.7518
rradius 69.3148
rwrist 27.3964
rhand -32.5528 -10.2402
rfingers 7.12502
rthumb -5.78245 -40.1413
lclavicle 1.11319e-014 6.36111e-015
lhumerus -23.9375 26.019 68.1519
lradius 61.3025
lwrist -5.84649
lhand -31.3457 36.7244
lfingers 7.12502
lthumb -4.617 66.6541
rfemur -45.6924 -18.8272 27.2629
rtibia 75.0899
rfoot -29.1081 -6.8983
rtoes 5.92738
lfemur -67.4588 0.825015 -13.3037
ltibia 75.2888
lfoot 0.769649 -11.4543
ltoes -30.6376
67
root -11.0433 15.7167 -6.79753 11.1328 28.7651 4.4866
lowerback 29.9623 1.61817 2.18781
upperback 6.89161 3.29035 3.5207
thorax -8.79874 1.60468 1.49154
lowerneck -18.0602 3.88217 -2.72533
upperneck 9.96505 6.76468 -5.81427
head 6.09375 2.70782 -0.719097
rclavicle 2.54444e-014 2.38542e-014
rhumerus -17.7786 -29.8456 -47.8563
rradius 69.5412
rwrist 27.3459
rhand -32.5765 -10.697
rfingers 7.12502
rthumb -5.80539 -40.5974
lclavicle 2.54444e-014 2.38542e-014
lhumerus -22.8721 25.383 68.5792
lradius 61.4154
lwrist -6.15361
lhand -31.0903 35.9948
lfingers 7.12502
lthumb -4.37034 65.9297
rfemur -45.2824 -18.6988 27.3901
rtibia 74.8787
rfoot -29.3022 -7.17123
rtoes 6.25263
lfemur -67.424 0.904656 -13.9202
ltibia 74.1501
lfoot 0.729193 -11.8078
ltoes -30.8929
68
root -11.037 15.7253 -6.7734 11.0776 28.7413 4.38247
lowerback 30.0945 1.51903 2.32814
upperback 6.87404 3.22028 3.58104
thorax -8.87767 1.56858 1.50148
lowerneck -18.448 3.88883 -3.12939
upperneck 10.3692 6.86711 -5.45866
head 6.26096 2.74666 -0.521342
rclavicle 3.49861e-014 -7.63333e-014
rhumerus -18.0107 -29.7461 -47.9185
rradius 69.4839
rwrist 27.7143
rhand -33.0202 -10.7367
rfingers 7.12502
rthumb -6.23367 -40.625
lclavicle 3.49861e-014 -7.63333e-014
lhumerus -22.1398 24.1601 68.8329
lradius 61.9913
lwrist -5.76689
lhand -31.1664 36.7295
lfingers 7.12502
lthumb -4.44384 66.6629
rfemur -45.0183 -18.536 27.4697
rtibia 74.6346
rfoot -29.315 -7.35928
rtoes 6.48126
lfemur -67.4441 0.996709 -14.5587
ltibia 72.9986
lfoot 0.678605 -11.9377
ltoes -31.1151
69
root -11.0348 15.7362 -6.7489 11.1447 28.6837 4.48499
lowerback 30.2109 1.52644 2.2987
upperback 6.82124 3.22576 3.56835
thorax -8.99523 1.56949 1.49937
lowerneck -18.3787 3.86424 -3.18205
upperneck 10.3503 6.84011 -5.4455
head 6.24104 2.73475 -0.51325
rclavicle 1.59028e-014 -1.11319e-014
rhumerus -18.5687 -29.8151 -47.8686
rradius 69.5197
rwrist 28.0967
rhand -32.9285 -11.2522
rfingers 7.12502
rthumb -6.14517 -41.1431
lclavicle 1.59028e-014 -1.11319e-014
lhumerus -21.3714 22.2317 69.1399
lradius 62.7825
lwrist -4.77368
lhand -31.9803 39.6882
lfingers 7.12502
lthumb -5.22972 69.6037
rfemur -44.8056 -18.3128 27.3534
rtibia 74.3769
rfoot -29.3705 -7.55057
rtoes 6.69135
lfemur -67.4207 1.11164 -15.418
ltibia 71.7443
lfoot 0.764564 -12.1219
ltoes -31.4173
70
root -11.0371 15.7474 -6.71409 11.2891 28.6553 4.56543
lowerback 30.0274 1.56404 2.11847
upperback 6.84618 3.21357 3.59735
thorax -8.88936 1.56914 1.64433
lowerneck -17.9636 3.9184 -2.96286
upperneck 9.93306 6.83768 -5.6409
head 6.05399 2.75154 -0.621508
rclavicle -9.54166e-014 0
rhumerus -18.9902 -29.9946 -47.996
rradius 69.6739
rwrist 28.1454
rhand -32.4331 -11.8692
rfingers 7.12502
rthumb -5.66687 -41.7734
lclavicle -9.54166e-014 0
lhumerus -20.2637 21.2782 69.3928
lradius 62.8305
lwrist -5.13788
lhand -32.3105 40.6444
lfingers 7.12502
lthumb -5.5485 70.5518
rfemur -44.6578 -18.0667 27.3456
rtibia 74.1556
rfoot -29.4137 -7.91688
rtoes 6.44305
lfemur -67.4643 1.25027 -16.1952
ltibia 70.4401
lfoot 0.880613 -12.334
ltoes -32.3248
